<svg width="351" height="341" viewBox="0 0 351 341" fill="none" xmlns="http://www.w3.org/2000/svg">
<g clip-path="url(#clip0_2_69)">
<path d="M246.327 339.849C245.959 340.236 245.578 340.618 245.191 341H201.114C200.752 340.628 200.395 340.246 200.037 339.849C200.023 339.835 200.008 339.815 199.994 339.801C195.205 334.491 192.19 326.772 190.31 318.633C190.19 318.14 190.083 317.642 189.977 317.139C189.484 314.851 189.083 312.54 188.755 310.248C188.697 309.851 188.639 309.454 188.59 309.058C188.146 305.765 187.846 302.524 187.653 299.482C187.629 299.091 187.605 298.709 187.58 298.327C187.226 292.271 187.223 286.199 187.571 280.143C187.571 280.143 187.629 280.143 187.74 280.148C188.064 280.162 188.842 280.196 189.987 280.264C193.142 280.457 199.095 280.941 206.096 282.082C206.478 282.145 206.865 282.213 207.251 282.281C213.173 283.26 219.015 284.676 224.728 286.517C225.086 286.638 225.438 286.759 225.796 286.88L225.801 286.904L230.183 308.913L232 289.322C233.445 289.975 234.851 290.671 236.199 291.416C236.576 291.624 236.943 291.832 237.306 292.045C240.388 293.793 243.185 296.001 245.602 298.593C259.977 314.537 256.899 328.789 246.327 339.849Z" fill="#F2F2F2"/>
<path d="M227.907 311.941L228.671 312.788C237.504 322.682 242.775 331.865 244.399 340.218C244.425 340.339 244.442 340.46 244.468 340.582L243.903 340.689L243.358 340.785C241.701 331.678 235.53 322.265 227.829 313.633C227.583 313.353 227.334 313.068 227.076 312.791C223.784 309.166 220.244 305.688 216.665 302.436C216.39 302.182 216.107 301.928 215.824 301.673C211.077 297.405 206.302 293.544 202.043 290.29C201.743 290.059 201.439 289.831 201.139 289.608C193.908 284.129 188.297 280.497 187.046 279.701C186.896 279.601 186.81 279.549 186.791 279.536L187.087 279.063L187.087 279.055L187.388 278.578C187.407 278.591 187.694 278.766 188.212 279.104C190.159 280.36 195.39 283.816 201.899 288.73C202.191 288.953 202.496 289.181 202.795 289.412C206.254 292.05 210.037 295.072 213.858 298.38C214.819 299.209 215.756 300.037 216.669 300.864C216.956 301.115 217.239 301.369 217.513 301.623C221.383 305.138 224.848 308.577 227.907 311.941Z" fill="white"/>
<path d="M206.512 281.144C206.381 281.458 206.241 281.773 206.096 282.082C204.992 284.473 203.581 286.708 201.897 288.732C201.651 289.022 201.4 289.317 201.139 289.607C200.433 290.386 199.683 291.139 198.887 291.866C195.631 294.815 191.773 297.02 187.58 298.327C187.445 298.37 187.315 298.414 187.179 298.452C187.203 298.834 187.228 299.212 187.252 299.603C187.387 299.565 187.518 299.526 187.653 299.482C192.102 298.14 196.197 295.824 199.641 292.702C200.483 291.941 201.285 291.135 202.042 290.289C202.303 290.004 202.555 289.709 202.796 289.414C204.597 287.249 206.095 284.849 207.251 282.281C207.386 281.971 207.522 281.662 207.652 281.347C207.266 281.28 206.884 281.212 206.512 281.144Z" fill="white"/>
<path d="M224.926 285.661C224.868 285.946 224.8 286.232 224.728 286.517C223.418 291.953 220.628 296.92 216.669 300.866C216.393 301.141 216.113 301.412 215.823 301.673C215.741 301.755 215.649 301.842 215.562 301.92C211.96 305.175 207.633 307.52 202.941 308.762C198.249 310.004 193.329 310.105 188.59 309.058C188.479 309.039 188.363 309.01 188.252 308.985C188.31 309.382 188.363 309.783 188.426 310.18C188.537 310.204 188.644 310.228 188.755 310.248C193.614 311.254 198.641 311.1 203.43 309.798C208.218 308.497 212.633 306.084 216.316 302.757C216.432 302.65 216.552 302.549 216.664 302.437C216.954 302.166 217.234 301.896 217.514 301.625C221.566 297.566 224.432 292.476 225.801 286.904C225.873 286.614 225.941 286.324 226.004 286.033C225.646 285.908 225.289 285.782 224.926 285.661Z" fill="white"/>
<path d="M236.199 290.599C236.204 290.869 236.204 291.145 236.199 291.416C236.118 299.059 233.157 306.389 227.907 311.94C227.637 312.23 227.356 312.511 227.076 312.791C226.772 313.086 226.468 313.381 226.153 313.662C221.293 318.046 215.152 320.751 208.639 321.377C202.125 322.003 195.583 320.518 189.977 317.139C189.881 317.089 189.787 317.034 189.697 316.974C189.813 317.487 189.929 317.99 190.054 318.493C190.141 318.541 190.223 318.59 190.31 318.633C196.078 321.852 202.708 323.185 209.271 322.444C215.833 321.704 222 318.927 226.907 314.503C227.221 314.218 227.535 313.933 227.83 313.633C228.12 313.357 228.395 313.077 228.671 312.786C233.994 307.167 237.068 299.785 237.306 292.045C237.315 291.783 237.32 291.522 237.32 291.261C236.953 291.034 236.576 290.816 236.199 290.599Z" fill="white"/>
<path d="M138.515 80.0745H53.577C52.8701 80.0737 52.1925 79.7923 51.6927 79.2921C51.1928 78.7919 50.9117 78.1136 50.9109 77.4062V12.8569C50.9117 12.1494 51.1928 11.4712 51.6926 10.9709C52.1924 10.4706 52.8701 10.1892 53.577 10.1883H157.834C158.541 10.1892 159.218 10.4706 159.718 10.9709C160.218 11.4712 160.499 12.1494 160.5 12.8569V58.0705C160.493 63.9043 158.175 69.4973 154.053 73.6224C149.932 77.7475 144.344 80.0679 138.515 80.0745Z" fill="white"/>
<path d="M138.515 80.3163H53.577C52.8061 80.3154 52.0671 80.0085 51.522 79.4629C50.9769 78.9174 50.6703 78.1777 50.6693 77.4062V12.8569C50.6702 12.0853 50.9768 11.3456 51.5219 10.8C52.067 10.2544 52.8061 9.94744 53.577 9.94652H157.834C158.605 9.9474 159.344 10.2543 159.889 10.7999C160.434 11.3456 160.741 12.0853 160.742 12.8569V58.0704C160.735 63.9684 158.391 69.6228 154.224 73.7932C150.057 77.9637 144.408 80.3096 138.515 80.3163ZM53.577 10.9137C53.0623 10.9144 52.5688 11.1193 52.2049 11.4836C51.841 11.8479 51.6363 12.3417 51.6357 12.8569V77.4062C51.6363 77.9213 51.841 78.4151 52.2049 78.7794C52.5689 79.1436 53.0623 79.3485 53.577 79.3491H138.515C144.151 79.3427 149.555 77.0988 153.541 73.1097C157.527 69.1205 159.769 63.7119 159.775 58.0704V12.8569C159.775 12.3417 159.57 11.8479 159.206 11.4836C158.842 11.1193 158.349 10.9144 157.834 10.9137H53.577Z" fill="#CCCCCC"/>
<path d="M137.225 31.9878H74.1859C73.6072 31.9878 73.0521 31.7577 72.6429 31.3481C72.2337 30.9386 72.0038 30.383 72.0038 29.8038C72.0038 29.2246 72.2337 28.6691 72.6429 28.2595C73.0521 27.8499 73.6072 27.6198 74.1859 27.6198H137.225C137.803 27.6207 138.357 27.8512 138.766 28.2606C139.174 28.6701 139.404 29.2251 139.404 29.8038C139.404 30.3825 139.174 30.9375 138.766 31.347C138.357 31.7565 137.803 31.9869 137.225 31.9878Z" fill="#CCCCCC"/>
<path d="M137.225 47.0331H74.1859C73.6072 47.0331 73.0521 46.803 72.6429 46.3935C72.2337 45.9839 72.0038 45.4284 72.0038 44.8491C72.0038 44.2699 72.2337 43.7144 72.6429 43.3048C73.0521 42.8952 73.6072 42.6651 74.1859 42.6651H137.225C137.804 42.6651 138.359 42.8952 138.768 43.3048C139.177 43.7144 139.407 44.2699 139.407 44.8491C139.407 45.4284 139.177 45.9839 138.768 46.3935C138.359 46.803 137.804 47.0331 137.225 47.0331Z" fill="#CCCCCC"/>
<path d="M137.225 62.5085H74.1859C73.6072 62.5085 73.0521 62.2784 72.6429 61.8688C72.2337 61.4593 72.0038 60.9037 72.0038 60.3245C72.0038 59.7453 72.2337 59.1898 72.6429 58.7802C73.0521 58.3706 73.6072 58.1405 74.1859 58.1405H137.225C137.804 58.1405 138.359 58.3706 138.768 58.7802C139.177 59.1898 139.407 59.7453 139.407 60.3245C139.407 60.9037 139.177 61.4593 138.768 61.8688C138.359 62.2784 137.804 62.5085 137.225 62.5085Z" fill="#CCCCCC"/>
<path d="M157.051 26.0842C164.248 26.0842 170.082 20.2451 170.082 13.0421C170.082 5.83915 164.248 0 157.051 0C149.854 0 144.02 5.83915 144.02 13.0421C144.02 20.2451 149.854 26.0842 157.051 26.0842Z" fill="#52B6EB"/>
<path d="M155.273 19.8299C155.048 19.8299 154.826 19.7775 154.625 19.6767C154.424 19.576 154.249 19.4297 154.114 19.2495L150.559 14.5053C150.445 14.3529 150.362 14.1795 150.314 13.9949C150.267 13.8104 150.257 13.6183 150.284 13.4297C150.311 13.2411 150.374 13.0597 150.471 12.8957C150.568 12.7318 150.697 12.5886 150.849 12.4743C151.001 12.36 151.174 12.2769 151.359 12.2296C151.543 12.1823 151.735 12.1718 151.924 12.1988C152.112 12.2257 152.293 12.2896 152.457 12.3866C152.621 12.4837 152.764 12.6121 152.878 12.7645L155.204 15.8681L161.178 6.9001C161.391 6.57995 161.722 6.3577 162.099 6.28224C162.476 6.20678 162.868 6.28429 163.188 6.49772C163.508 6.71116 163.73 7.04303 163.805 7.42033C163.88 7.79763 163.803 8.18945 163.59 8.5096L156.48 19.1839C156.351 19.3769 156.178 19.5363 155.975 19.6486C155.772 19.761 155.546 19.823 155.314 19.8295C155.3 19.8297 155.287 19.8299 155.273 19.8299Z" fill="white"/>
<path d="M107.165 136.138H22.2267C16.3979 136.132 10.8097 133.812 6.68815 129.686C2.56657 125.561 0.248168 119.968 0.241592 114.134V68.9206C0.242422 68.2131 0.5236 67.5349 1.02344 67.0346C1.52329 66.5343 2.20098 66.2529 2.90787 66.2521H107.165C107.871 66.2529 108.549 66.5343 109.049 67.0346C109.549 67.5349 109.83 68.2131 109.831 68.9206V133.47C109.83 134.177 109.549 134.856 109.049 135.356C108.549 135.856 107.871 136.138 107.165 136.138Z" fill="white"/>
<path d="M107.165 136.38H22.2267C16.3339 136.374 10.6843 134.028 6.51746 129.857C2.35059 125.687 0.00669999 120.032 0 114.134V68.9206C0.000873471 68.149 0.307519 67.4093 0.85266 66.8637C1.3978 66.3181 2.13692 66.0111 2.90787 66.0103H107.165C107.936 66.0111 108.675 66.3181 109.22 66.8637C109.765 67.4093 110.072 68.149 110.072 68.9206V133.47C110.072 134.242 109.765 134.981 109.22 135.527C108.675 136.072 107.936 136.379 107.165 136.38ZM2.90787 66.9775C2.39314 66.9781 1.89968 67.183 1.53571 67.5473C1.17175 67.9116 0.967 68.4055 0.96638 68.9206V114.134C0.972746 119.776 3.21471 125.185 7.20042 129.174C11.1861 133.163 16.5901 135.407 22.2267 135.413H107.165C107.679 135.412 108.173 135.208 108.537 134.843C108.901 134.479 109.105 133.985 109.106 133.47V68.9206C109.105 68.4055 108.901 67.9116 108.537 67.5473C108.173 67.183 107.679 66.9781 107.165 66.9775H2.90787Z" fill="#CCCCCC"/>
<path d="M86.5557 88.0516H23.5167C22.938 88.0516 22.3829 87.8215 21.9737 87.4119C21.5645 87.0024 21.3346 86.4468 21.3346 85.8676C21.3346 85.2884 21.5645 84.7329 21.9737 84.3233C22.3829 83.9137 22.938 83.6836 23.5167 83.6836H86.5557C87.1345 83.6836 87.6895 83.9137 88.0987 84.3233C88.5079 84.7329 88.7378 85.2884 88.7378 85.8676C88.7378 86.4468 88.5079 87.0024 88.0987 87.4119C87.6895 87.8215 87.1345 88.0516 86.5557 88.0516Z" fill="#CCCCCC"/>
<path d="M86.5557 103.097H23.5167C22.938 103.097 22.3829 102.867 21.9737 102.457C21.5645 102.048 21.3346 101.492 21.3346 100.913C21.3346 100.334 21.5645 99.7782 21.9737 99.3686C22.3829 98.959 22.938 98.7289 23.5167 98.7289H86.5557C87.1345 98.7289 87.6895 98.959 88.0987 99.3686C88.5079 99.7782 88.7378 100.334 88.7378 100.913C88.7378 101.492 88.5079 102.048 88.0987 102.457C87.6895 102.867 87.1345 103.097 86.5557 103.097Z" fill="#CCCCCC"/>
<path d="M86.5557 118.572H23.5167C22.938 118.572 22.3829 118.342 21.9737 117.933C21.5645 117.523 21.3346 116.968 21.3346 116.388C21.3346 115.809 21.5645 115.254 21.9737 114.844C22.3829 114.434 22.938 114.204 23.5167 114.204H86.5557C87.1345 114.204 87.6895 114.434 88.0987 114.844C88.5079 115.254 88.7378 115.809 88.7378 116.388C88.7378 116.968 88.5079 117.523 88.0987 117.933C87.6895 118.342 87.1345 118.572 86.5557 118.572Z" fill="#CCCCCC"/>
<path d="M107.283 82.666C114.479 82.666 120.313 76.8269 120.313 69.6239C120.313 62.421 114.479 56.5818 107.283 56.5818C100.086 56.5818 94.2517 62.421 94.2517 69.6239C94.2517 76.8269 100.086 82.666 107.283 82.666Z" fill="#52B6EB"/>
<path d="M105.505 76.4117C105.28 76.4117 105.058 76.3593 104.857 76.2585C104.655 76.1578 104.48 76.0115 104.345 75.8313L100.79 71.0871C100.676 70.9347 100.593 70.7613 100.546 70.5767C100.499 70.3922 100.488 70.2001 100.515 70.0115C100.542 69.8229 100.606 69.6415 100.703 69.4776C100.8 69.3136 100.928 69.1704 101.08 69.0561C101.233 68.9418 101.406 68.8587 101.59 68.8114C101.775 68.7641 101.967 68.7536 102.155 68.7806C102.343 68.8075 102.525 68.8714 102.689 68.9685C102.852 69.0655 102.995 69.1939 103.11 69.3463L105.435 72.4499L111.409 63.4819C111.622 63.1618 111.954 62.9395 112.331 62.8641C112.708 62.7886 113.099 62.8661 113.419 63.0795C113.739 63.293 113.961 63.6248 114.036 64.0021C114.112 64.3794 114.034 64.7713 113.821 65.0914L106.711 75.7657C106.582 75.9587 106.41 76.1181 106.207 76.2304C106.004 76.3428 105.777 76.4048 105.545 76.4113C105.532 76.4115 105.518 76.4117 105.505 76.4117Z" fill="white"/>
<path d="M212.995 196.305H94.1477C88.3189 196.299 82.7307 193.978 78.6091 189.853C74.4875 185.728 72.1691 180.135 72.1625 174.301V107.799C72.1636 106.887 72.526 106.013 73.1703 105.368C73.8146 104.723 74.6882 104.36 75.5994 104.359H212.995C213.906 104.36 214.78 104.723 215.424 105.368C216.068 106.013 216.43 106.887 216.431 107.799V192.865C216.43 193.777 216.068 194.652 215.424 195.297C214.78 195.941 213.906 196.304 212.995 196.305Z" fill="white"/>
<path d="M212.995 196.547H94.1477C88.2549 196.54 82.6053 194.195 78.4384 190.024C74.2715 185.854 71.9277 180.199 71.921 174.301V107.799C71.9221 106.823 72.31 105.887 72.9996 105.197C73.6892 104.507 74.6241 104.118 75.5994 104.117H212.995C213.97 104.118 214.905 104.507 215.595 105.197C216.284 105.887 216.672 106.823 216.673 107.799V192.865C216.672 193.841 216.284 194.777 215.595 195.467C214.905 196.158 213.97 196.546 212.995 196.547ZM75.5994 105.085C74.8804 105.085 74.191 105.372 73.6826 105.88C73.1742 106.389 72.8882 107.079 72.8873 107.799V174.301C72.8937 179.943 75.1357 185.351 79.1214 189.34C83.1071 193.33 88.511 195.574 94.1477 195.58H212.995C213.714 195.579 214.403 195.293 214.912 194.784C215.42 194.275 215.706 193.585 215.707 192.865V107.799C215.706 107.079 215.42 106.389 214.912 105.881C214.403 105.372 213.714 105.085 212.995 105.085H75.5994Z" fill="#CCCCCC"/>
<path d="M185.835 133.011H102.759C102.381 133.011 102.007 132.937 101.657 132.793C101.308 132.648 100.99 132.436 100.723 132.169C100.456 131.902 100.243 131.584 100.099 131.235C99.9539 130.885 99.8794 130.511 99.8794 130.133C99.8794 129.754 99.9539 129.38 100.099 129.03C100.243 128.681 100.456 128.363 100.723 128.096C100.99 127.829 101.308 127.617 101.657 127.472C102.007 127.328 102.381 127.254 102.759 127.254H185.835C186.213 127.254 186.588 127.328 186.937 127.472C187.286 127.617 187.604 127.829 187.871 128.096C188.139 128.363 188.351 128.681 188.495 129.03C188.64 129.38 188.715 129.754 188.715 130.133C188.715 130.511 188.64 130.885 188.495 131.235C188.351 131.584 188.139 131.902 187.871 132.169C187.604 132.436 187.286 132.648 186.937 132.793C186.588 132.937 186.213 133.011 185.835 133.011Z" fill="#CCCCCC"/>
<path d="M185.835 152.838H102.759C102.381 152.839 102.007 152.765 101.657 152.62C101.308 152.476 100.99 152.264 100.723 151.997C100.456 151.729 100.243 151.412 100.099 151.062C99.9539 150.713 99.8794 150.338 99.8794 149.96C99.8794 149.582 99.9539 149.207 100.099 148.858C100.243 148.508 100.456 148.191 100.723 147.924C100.99 147.656 101.308 147.444 101.657 147.3C102.007 147.155 102.381 147.081 102.759 147.082H185.835C186.598 147.082 187.329 147.385 187.869 147.925C188.408 148.465 188.711 149.197 188.711 149.96C188.711 150.723 188.408 151.456 187.869 151.995C187.329 152.535 186.598 152.838 185.835 152.838Z" fill="#CCCCCC"/>
<path d="M185.835 173.233H102.759C101.996 173.233 101.265 172.929 100.725 172.39C100.186 171.85 99.8832 171.118 99.8832 170.354C99.8832 169.591 100.186 168.859 100.725 168.319C101.265 167.779 101.996 167.476 102.759 167.476H185.835C186.213 167.476 186.588 167.55 186.937 167.694C187.286 167.839 187.604 168.051 187.871 168.318C188.139 168.585 188.351 168.903 188.495 169.252C188.64 169.602 188.715 169.976 188.715 170.354C188.715 170.733 188.64 171.107 188.495 171.457C188.351 171.806 188.139 172.124 187.871 172.391C187.604 172.658 187.286 172.87 186.937 173.015C186.588 173.159 186.213 173.233 185.835 173.233Z" fill="#CCCCCC"/>
<path d="M213.426 126.075C222.537 126.075 229.922 118.683 229.922 109.565C229.922 100.447 222.537 93.0555 213.426 93.0555C204.316 93.0555 196.931 100.447 196.931 109.565C196.931 118.683 204.316 126.075 213.426 126.075Z" fill="#52B6EB"/>
<path d="M211.176 118.158C210.891 118.158 210.61 118.091 210.356 117.964C210.101 117.836 209.879 117.651 209.708 117.423L205.208 111.417C205.064 111.225 204.958 111.005 204.899 110.771C204.839 110.538 204.826 110.295 204.86 110.056C204.894 109.817 204.975 109.587 205.097 109.38C205.22 109.172 205.382 108.991 205.575 108.846C205.768 108.702 205.987 108.597 206.221 108.537C206.454 108.477 206.697 108.464 206.936 108.498C207.174 108.532 207.404 108.613 207.611 108.735C207.818 108.858 207.999 109.021 208.144 109.214L211.088 113.143L218.65 101.79C218.92 101.386 219.34 101.105 219.817 101.01C220.294 100.915 220.789 101.013 221.193 101.283C221.598 101.553 221.879 101.972 221.975 102.45C222.07 102.927 221.973 103.422 221.704 103.828L212.703 117.34C212.54 117.584 212.321 117.786 212.065 117.928C211.808 118.07 211.521 118.149 211.227 118.157C211.21 118.157 211.193 118.158 211.176 118.158Z" fill="white"/>
<path d="M256.161 327.82L249.45 330.066L237.598 305.227L247.504 301.911L256.161 327.82Z" fill="#FFB6B6"/>
<path d="M260.048 333.758L238.408 339.55L238.317 339.276C237.564 337.024 237.733 336.065 238.792 333.94C239.31 332.894 240.03 331.96 240.911 331.194C241.791 330.428 242.815 329.845 243.922 329.477L243.923 329.477L246.873 325.153L255.251 325.686L257.14 325.053L260.048 333.758Z" fill="#2F2E41"/>
<path d="M272.742 334.135H265.665L262.299 306.816L272.743 306.817L272.742 334.135Z" fill="#FFB6B6"/>
<path d="M274.546 339.55L251.729 339.549V339.26C251.729 336.886 252.653 336.104 254.33 334.426C255.153 333.598 256.132 332.941 257.21 332.494C258.288 332.048 259.443 331.819 260.61 331.822H260.611L264.779 328.658L272.555 331.823L274.547 331.823L274.546 339.55Z" fill="#2F2E41"/>
<path d="M218.885 115.251C219.03 115.993 219.337 116.694 219.783 117.305C220.228 117.915 220.802 118.421 221.464 118.785C222.126 119.15 222.86 119.365 223.614 119.415C224.368 119.465 225.124 119.349 225.828 119.075L233.997 127.611L240.392 123.908L228.685 112.015C228.147 110.861 227.205 109.945 226.037 109.44C224.869 108.935 223.557 108.877 222.349 109.276C221.141 109.675 220.121 110.503 219.482 111.605C218.844 112.706 218.631 114.003 218.885 115.251Z" fill="#FFB6B6"/>
<path d="M271.756 158.174L275.439 154.36L254.141 134.618L232.705 115.461L226.768 123.858L249.231 144.843L271.756 158.174Z" fill="#E4E4E4"/>
<path d="M258.67 287.732C258.67 282.94 258.765 279.521 258.841 276.774C259.063 268.735 259.123 266.574 256.05 252.73L255.26 249.174L250.605 263.152C249.118 267.611 248.358 272.281 248.354 276.982L255.532 320.086H240.862L230.117 273.486L230.112 259.231C229.165 258.251 228.636 256.941 228.636 255.577C228.636 254.214 229.165 252.904 230.112 251.923L233.682 230.568L237.295 201.787H276.872C276.872 201.787 283.856 216.276 276.915 230.649L276.914 287.75L273.328 327.232H262.257L258.67 287.732Z" fill="#2F2E41"/>
<path d="M274.452 205.27L237.433 202.183L237.241 202.167L240.195 148.945C240.369 145.598 241.542 142.381 243.563 139.709C245.584 137.038 248.359 135.035 251.53 133.96V130.235C251.531 129.313 251.898 128.429 252.549 127.777C253.2 127.126 254.083 126.759 255.004 126.758H260.413C261.059 126.756 261.692 126.935 262.241 127.274C262.791 127.614 263.234 128.101 263.521 128.68L266.165 133.974L276.167 141.982C281.106 145.938 277.131 185.592 276.917 187.684L279.336 199.79C279.469 200.455 279.453 201.142 279.289 201.801C279.125 202.46 278.817 203.075 278.388 203.6C277.958 204.126 277.417 204.55 276.805 204.842C276.192 205.133 275.522 205.285 274.844 205.287C274.714 205.287 274.583 205.281 274.452 205.27Z" fill="#E4E4E4"/>
<path d="M235.249 219.323C235.835 218.845 236.308 218.244 236.636 217.563C236.964 216.881 237.139 216.137 237.148 215.38C237.158 214.624 237.001 213.875 236.69 213.186C236.379 212.497 235.92 211.885 235.347 211.392L239.02 200.157L232.743 196.258L227.779 212.197C227.016 213.215 226.653 214.479 226.758 215.748C226.864 217.016 227.431 218.202 228.352 219.081C229.272 219.959 230.483 220.469 231.754 220.514C233.026 220.558 234.269 220.135 235.249 219.323Z" fill="#FFB6B6"/>
<path d="M248.159 142.948L243.063 141.248L235.702 174.117L228.922 206.806L239.119 208.308L247.026 173.551L248.159 142.948Z" fill="#E4E4E4"/>
<path d="M253.724 123.356C260.439 123.356 265.882 117.908 265.882 111.187C265.882 104.467 260.439 99.0189 253.724 99.0189C247.01 99.0189 241.566 104.467 241.566 111.187C241.566 117.908 247.01 123.356 253.724 123.356Z" fill="#FFB6B6"/>
<path d="M237.366 105.228C237.478 104.075 237.808 102.954 238.339 101.924C238.907 103.161 240.68 103.376 241.893 102.76C243.107 102.144 243.92 100.975 244.787 99.9258C247.075 97.1576 250.222 94.9121 253.788 94.5031C257.355 94.0941 261.285 95.8959 262.633 99.2259C263.238 98.3855 264.528 98.2921 265.44 98.7804C266.322 99.3368 267.01 100.152 267.41 101.116C268.307 102.959 268.815 104.968 268.9 107.016C268.985 109.065 268.646 111.109 267.904 113.02C266.403 116.824 262.694 121.948 258.868 123.384C256.545 124.255 254.199 123.14 251.729 123.384C251.858 120.685 252.381 117.356 252.51 114.657C252.581 113.18 252.591 111.526 251.583 110.444C251.273 110.15 250.903 109.928 250.499 109.793C250.094 109.658 249.665 109.614 249.241 109.664C248.817 109.713 248.41 109.855 248.047 110.08C247.684 110.304 247.375 110.606 247.142 110.963C247.017 110.124 246.734 109.317 246.307 108.583C246.089 108.22 245.773 107.925 245.396 107.731C245.018 107.538 244.594 107.454 244.172 107.489C243.14 107.658 242.503 108.717 241.556 109.161C241.019 109.377 240.428 109.423 239.864 109.294C239.299 109.164 238.788 108.865 238.398 108.436C238.019 107.999 237.732 107.489 237.555 106.938C237.377 106.386 237.313 105.805 237.366 105.228Z" fill="#2F2E41"/>
<path opacity="0.1" d="M255.298 173.403L241.019 201.985H251.729L255.298 173.403Z" fill="black"/>
<path d="M351 340.425C351 340.5 350.986 340.575 350.957 340.645C350.928 340.715 350.886 340.779 350.832 340.832C350.779 340.885 350.715 340.928 350.645 340.957C350.575 340.986 350.501 341 350.425 341H77.7659C77.6134 341 77.4671 340.939 77.3593 340.831C77.2515 340.724 77.1909 340.577 77.1909 340.425C77.1909 340.272 77.2515 340.126 77.3593 340.018C77.4671 339.91 77.6134 339.849 77.7659 339.849H350.425C350.501 339.849 350.575 339.864 350.645 339.892C350.715 339.921 350.779 339.964 350.832 340.017C350.886 340.071 350.928 340.134 350.957 340.204C350.986 340.274 351 340.349 351 340.425Z" fill="#CACACA"/>
</g>
<defs>
<clipPath id="clip0_2_69">
<rect width="351" height="341" fill="white"/>
</clipPath>
</defs>
</svg>
